# xmcd
#
# Track frame offsets:
#	150
#	8700
#	29964
#	52272
#	88494
#	106690
#	148176
#	159759
#	173031
#	175992
#	191086
#	205238
#	223947
#
# Disc length: 3257
#
# Revision: 2
# Processed by: cddbd v1.5.1PL2 Copyright (c) Steve Scherf et al.
# Submitted via: freedbtool 1.11
# Normalized: r0:TRMNUM
#
DISCID=c20cb70d
DTITLE=Stevie Ray Vaughan - Couldn't Stand the Weather
DYEAR=1900
DGENRE=Blues
TTITLE0=Scuttle Buttin'
TTITLE1=Couldn't Stand The Weather
TTITLE2=Things That I Used To Do
TTITLE3=Voodoo Chile (Slight Return)
TTITLE4=Cold Shot
TTITLE5=Tin Pan Alley (aka Roughest Place in Town)
TTITLE6=Honey Bee
TTITLE7=Stang's Swang
TTITLE8=SRV Speaks
TTITLE9=Hide Away
TTITLE10=Look At Little Sister
TTITLE11=Give Me Back My Wig
TTITLE12=Come On (Pt.III)
EXTD=
EXTT0=
EXTT1=
EXTT2=
EXTT3=
EXTT4=
EXTT5=
EXTT6=
EXTT7=
EXTT8=
EXTT9=
EXTT10=
EXTT11=
EXTT12=
PLAYORDER=
